STARTFONT 2.1
COMMENT
COMMENT Converted from OpenType font "Q:\font stuff\winfont\Leger-Regular.otf" by "otf2bdf 3.0".
COMMENT
FONT -FreeType-Leger-Medium-R-Normal--16-160-72-72-P-52-ISO10646-1
SIZE 16 72 72
FONTBOUNDINGBOX 12 19 0 -3
STARTPROPERTIES 19
FOUNDRY "FreeType"
FAMILY_NAME "Leger"
WEIGHT_NAME "Medium"
SLANT "R"
SETWIDTH_NAME "Normal"
ADD_STYLE_NAME ""
PIXEL_SIZE 14
POINT_SIZE 160
RESOLUTION_X 72
RESOLUTION_Y 72
SPACING "P"
AVERAGE_WIDTH 52
CHARSET_REGISTRY "ISO10646"
CHARSET_ENCODING "1"
FONT_ASCENT 14
FONT_DESCENT 3
COPYRIGHT "© 2000 [T-26] a digital type foundry 1110 N. Milwaukee Ave. Chicago, IL 60622 USA ¥ T0690 ¥ÊID#5116747 ¥ Designer: Bill Dawson ¥ÊAll rights reserved."
_OTF_FONTFILE "Q:\font stuff\winfont\Leger-Regular.otf"
_OTF_PSNAME "Leger-Regular"
ENDPROPERTIES
CHARS 198
STARTCHAR 0020
ENCODING 32
SWIDTH 125 0
DWIDTH 2 0
BBX 0 0 0 0
BITMAP
ENDCHAR
STARTCHAR 0021
ENCODING 33
SWIDTH 250 0
DWIDTH 4 0
BBX 1 12 1 0
BITMAP
80
80
80
80
80
80
80
80
80
80
00
80
ENDCHAR
STARTCHAR 0022
ENCODING 34
SWIDTH 312 0
DWIDTH 5 0
BBX 3 3 1 8
BITMAP
A0
A0
A0
ENDCHAR
STARTCHAR 0023
ENCODING 35
SWIDTH 562 0
DWIDTH 9 0
BBX 8 10 0 1
BITMAP
0A
12
12
7F
14
24
FE
28
28
48
ENDCHAR
STARTCHAR 0024
ENCODING 36
SWIDTH 375 0
DWIDTH 6 0
BBX 6 12 0 0
BITMAP
20
70
CC
80
80
60
18
04
04
CC
70
20
ENDCHAR
STARTCHAR 0025
ENCODING 37
SWIDTH 562 0
DWIDTH 9 0
BBX 8 10 0 -1
BITMAP
62
92
94
64
08
10
17
25
65
47
ENDCHAR
STARTCHAR 0026
ENCODING 38
SWIDTH 500 0
DWIDTH 8 0
BBX 8 12 0 0
BITMAP
38
48
84
40
40
60
70
90
8B
86
4E
7B
ENDCHAR
STARTCHAR 0027
ENCODING 39
SWIDTH 250 0
DWIDTH 4 0
BBX 1 3 2 8
BITMAP
80
80
80
ENDCHAR
STARTCHAR 0028
ENCODING 40
SWIDTH 375 0
DWIDTH 6 0
BBX 5 16 1 -2
BITMAP
18
60
40
80
80
80
80
80
80
80
80
80
80
40
60
18
ENDCHAR
STARTCHAR 0029
ENCODING 41
SWIDTH 375 0
DWIDTH 6 0
BBX 5 16 0 -2
BITMAP
C0
30
10
08
08
08
08
08
08
08
08
08
08
10
30
C0
ENDCHAR
STARTCHAR 002A
ENCODING 42
SWIDTH 375 0
DWIDTH 6 0
BBX 5 4 1 9
BITMAP
50
F8
70
50
ENDCHAR
STARTCHAR 002B
ENCODING 43
SWIDTH 375 0
DWIDTH 6 0
BBX 5 5 1 3
BITMAP
20
20
F8
20
20
ENDCHAR
STARTCHAR 002C
ENCODING 44
SWIDTH 312 0
DWIDTH 5 0
BBX 2 3 1 0
BITMAP
40
C0
80
ENDCHAR
STARTCHAR 002D
ENCODING 45
SWIDTH 312 0
DWIDTH 5 0
BBX 3 1 1 4
BITMAP
E0
ENDCHAR
STARTCHAR 002E
ENCODING 46
SWIDTH 250 0
DWIDTH 4 0
BBX 1 1 1 1
BITMAP
80
ENDCHAR
STARTCHAR 002F
ENCODING 47
SWIDTH 375 0
DWIDTH 6 0
BBX 6 14 0 -2
BITMAP
04
08
08
08
10
10
10
20
20
20
40
40
40
80
ENDCHAR
STARTCHAR 0030
ENCODING 48
SWIDTH 437 0
DWIDTH 7 0
BBX 5 12 1 0
BITMAP
70
88
88
88
88
88
88
88
88
88
88
70
ENDCHAR
STARTCHAR 0031
ENCODING 49
SWIDTH 250 0
DWIDTH 4 0
BBX 2 12 1 0
BITMAP
C0
40
40
40
40
40
40
40
40
40
40
40
ENDCHAR
STARTCHAR 0032
ENCODING 50
SWIDTH 437 0
DWIDTH 7 0
BBX 5 12 1 0
BITMAP
70
88
88
08
08
10
20
40
80
80
80
F8
ENDCHAR
STARTCHAR 0033
ENCODING 51
SWIDTH 437 0
DWIDTH 7 0
BBX 5 12 1 0
BITMAP
70
88
08
08
08
30
08
08
08
88
88
70
ENDCHAR
STARTCHAR 0034
ENCODING 52
SWIDTH 437 0
DWIDTH 7 0
BBX 6 12 1 0
BITMAP
08
18
18
28
28
48
48
88
FC
08
08
08
ENDCHAR
STARTCHAR 0035
ENCODING 53
SWIDTH 437 0
DWIDTH 7 0
BBX 5 12 1 0
BITMAP
F8
80
80
80
F0
88
08
08
08
88
88
70
ENDCHAR
STARTCHAR 0036
ENCODING 54
SWIDTH 437 0
DWIDTH 7 0
BBX 5 12 1 0
BITMAP
70
80
80
80
F0
88
88
88
88
88
88
70
ENDCHAR
STARTCHAR 0037
ENCODING 55
SWIDTH 375 0
DWIDTH 6 0
BBX 6 12 0 0
BITMAP
FC
04
08
08
08
10
10
10
20
20
20
20
ENDCHAR
STARTCHAR 0038
ENCODING 56
SWIDTH 437 0
DWIDTH 7 0
BBX 5 12 1 0
BITMAP
70
88
88
88
88
88
70
88
88
88
88
70
ENDCHAR
STARTCHAR 0039
ENCODING 57
SWIDTH 437 0
DWIDTH 7 0
BBX 5 12 1 0
BITMAP
70
88
88
88
88
88
88
88
78
08
08
70
ENDCHAR
STARTCHAR 003A
ENCODING 58
SWIDTH 250 0
DWIDTH 4 0
BBX 1 4 1 1
BITMAP
80
00
00
80
ENDCHAR
STARTCHAR 003B
ENCODING 59
SWIDTH 312 0
DWIDTH 5 0
BBX 2 6 1 -1
BITMAP
40
00
00
40
C0
80
ENDCHAR
STARTCHAR 003C
ENCODING 60
SWIDTH 437 0
DWIDTH 7 0
BBX 7 7 0 2
BITMAP
02
0E
38
E0
30
0C
02
ENDCHAR
STARTCHAR 003D
ENCODING 61
SWIDTH 375 0
DWIDTH 6 0
BBX 6 3 0 3
BITMAP
FC
00
FC
ENDCHAR
STARTCHAR 003E
ENCODING 62
SWIDTH 437 0
DWIDTH 7 0
BBX 6 6 0 3
BITMAP
C0
30
0C
38
E0
80
ENDCHAR
STARTCHAR 003F
ENCODING 63
SWIDTH 375 0
DWIDTH 6 0
BBX 6 12 0 0
BITMAP
78
CC
84
04
04
08
10
20
20
00
00
20
ENDCHAR
STARTCHAR 0040
ENCODING 64
SWIDTH 562 0
DWIDTH 9 0
BBX 9 9 0 0
BITMAP
3E00
6300
DD80
A280
A280
A280
DF80
6000
1E00
ENDCHAR
STARTCHAR 0041
ENCODING 65
SWIDTH 375 0
DWIDTH 6 0
BBX 5 12 1 0
BITMAP
70
88
88
88
88
88
88
F8
88
88
88
88
ENDCHAR
STARTCHAR 0042
ENCODING 66
SWIDTH 375 0
DWIDTH 6 0
BBX 5 12 1 0
BITMAP
70
88
88
88
88
F0
88
88
88
88
88
F0
ENDCHAR
STARTCHAR 0043
ENCODING 67
SWIDTH 375 0
DWIDTH 6 0
BBX 5 12 0 0
BITMAP
70
88
80
80
80
80
80
80
80
80
88
70
ENDCHAR
STARTCHAR 0044
ENCODING 68
SWIDTH 375 0
DWIDTH 6 0
BBX 5 12 1 0
BITMAP
F0
88
88
88
88
88
88
88
88
88
88
F0
ENDCHAR
STARTCHAR 0045
ENCODING 69
SWIDTH 375 0
DWIDTH 6 0
BBX 5 12 0 0
BITMAP
F8
80
80
80
80
F0
80
80
80
80
80
78
ENDCHAR
STARTCHAR 0046
ENCODING 70
SWIDTH 375 0
DWIDTH 6 0
BBX 5 12 0 0
BITMAP
78
80
80
80
80
F0
80
80
80
80
80
80
ENDCHAR
STARTCHAR 0047
ENCODING 71
SWIDTH 375 0
DWIDTH 6 0
BBX 5 12 1 0
BITMAP
70
88
80
80
80
80
80
B8
88
88
88
70
ENDCHAR
STARTCHAR 0048
ENCODING 72
SWIDTH 437 0
DWIDTH 7 0
BBX 5 12 1 0
BITMAP
88
88
88
88
88
88
F8
88
88
88
88
88
ENDCHAR
STARTCHAR 0049
ENCODING 73
SWIDTH 250 0
DWIDTH 4 0
BBX 1 12 1 0
BITMAP
80
80
80
80
80
80
80
80
80
80
80
80
ENDCHAR
STARTCHAR 004A
ENCODING 74
SWIDTH 375 0
DWIDTH 6 0
BBX 5 12 0 0
BITMAP
78
08
08
08
08
08
08
08
08
08
90
E0
ENDCHAR
STARTCHAR 004B
ENCODING 75
SWIDTH 437 0
DWIDTH 7 0
BBX 6 12 1 0
BITMAP
8C
88
90
A0
A0
C0
C0
A0
B0
90
88
84
ENDCHAR
STARTCHAR 004C
ENCODING 76
SWIDTH 312 0
DWIDTH 5 0
BBX 4 12 1 0
BITMAP
80
80
80
80
80
80
80
80
80
80
80
F0
ENDCHAR
STARTCHAR 004D
ENCODING 77
SWIDTH 500 0
DWIDTH 8 0
BBX 6 12 1 0
BITMAP
84
84
CC
CC
CC
B4
B4
B4
84
84
84
84
ENDCHAR
STARTCHAR 004E
ENCODING 78
SWIDTH 437 0
DWIDTH 7 0
BBX 5 12 1 0
BITMAP
88
C8
C8
C8
C8
A8
A8
A8
98
98
98
88
ENDCHAR
STARTCHAR 004F
ENCODING 79
SWIDTH 375 0
DWIDTH 6 0
BBX 6 12 0 0
BITMAP
78
CC
84
84
84
84
84
84
84
84
CC
78
ENDCHAR
STARTCHAR 0050
ENCODING 80
SWIDTH 375 0
DWIDTH 6 0
BBX 5 12 1 0
BITMAP
F0
88
88
88
88
88
88
88
F0
80
80
80
ENDCHAR
STARTCHAR 0051
ENCODING 81
SWIDTH 437 0
DWIDTH 7 0
BBX 6 12 1 0
BITMAP
70
88
88
88
88
88
88
88
A8
A8
98
7C
ENDCHAR
STARTCHAR 0052
ENCODING 82
SWIDTH 375 0
DWIDTH 6 0
BBX 5 12 0 0
BITMAP
F0
88
88
88
88
88
88
F0
90
90
88
88
ENDCHAR
STARTCHAR 0053
ENCODING 83
SWIDTH 375 0
DWIDTH 6 0
BBX 6 12 0 0
BITMAP
78
CC
80
80
80
60
18
04
04
04
CC
78
ENDCHAR
STARTCHAR 0054
ENCODING 84
SWIDTH 375 0
DWIDTH 6 0
BBX 5 12 1 0
BITMAP
F8
20
20
20
20
20
20
20
20
20
20
20
ENDCHAR
STARTCHAR 0055
ENCODING 85
SWIDTH 375 0
DWIDTH 6 0
BBX 5 12 1 0
BITMAP
88
88
88
88
88
88
88
88
88
88
88
70
ENDCHAR
STARTCHAR 0056
ENCODING 86
SWIDTH 437 0
DWIDTH 7 0
BBX 6 12 0 0
BITMAP
84
44
44
48
48
48
28
28
30
30
30
10
ENDCHAR
STARTCHAR 0057
ENCODING 87
SWIDTH 625 0
DWIDTH 10 0
BBX 10 12 0 0
BITMAP
8040
8880
4C80
4C80
4C80
4C80
5500
3300
3300
3300
3300
2300
ENDCHAR
STARTCHAR 0058
ENCODING 88
SWIDTH 437 0
DWIDTH 7 0
BBX 6 12 0 0
BITMAP
84
44
48
28
30
10
10
30
28
48
44
84
ENDCHAR
STARTCHAR 0059
ENCODING 89
SWIDTH 437 0
DWIDTH 7 0
BBX 7 12 0 0
BITMAP
82
44
44
44
28
28
28
10
10
10
10
10
ENDCHAR
STARTCHAR 005A
ENCODING 90
SWIDTH 375 0
DWIDTH 6 0
BBX 6 12 0 0
BITMAP
FC
08
08
10
10
10
20
20
20
40
40
FC
ENDCHAR
STARTCHAR 005B
ENCODING 91
SWIDTH 375 0
DWIDTH 6 0
BBX 4 16 1 -2
BITMAP
70
80
80
80
80
80
80
80
80
80
80
80
80
80
80
70
ENDCHAR
STARTCHAR 005C
ENCODING 92
SWIDTH 375 0
DWIDTH 6 0
BBX 6 14 0 -1
BITMAP
80
40
40
40
20
20
20
10
10
10
08
08
08
04
ENDCHAR
STARTCHAR 005D
ENCODING 93
SWIDTH 375 0
DWIDTH 6 0
BBX 4 16 1 -2
BITMAP
E0
10
10
10
10
10
10
10
10
10
10
10
10
10
10
E0
ENDCHAR
STARTCHAR 005E
ENCODING 94
SWIDTH 437 0
DWIDTH 7 0
BBX 7 6 0 6
BITMAP
10
28
28
44
44
82
ENDCHAR
STARTCHAR 005F
ENCODING 95
SWIDTH 437 0
DWIDTH 7 0
BBX 8 1 0 -2
BITMAP
FF
ENDCHAR
STARTCHAR 0060
ENCODING 96
SWIDTH 312 0
DWIDTH 5 0
BBX 3 2 1 10
BITMAP
C0
60
ENDCHAR
STARTCHAR 0061
ENCODING 97
SWIDTH 375 0
DWIDTH 6 0
BBX 4 9 1 0
BITMAP
60
10
10
70
90
90
90
90
60
ENDCHAR
STARTCHAR 0062
ENCODING 98
SWIDTH 375 0
DWIDTH 6 0
BBX 4 12 1 0
BITMAP
80
80
80
E0
90
90
90
90
90
90
90
60
ENDCHAR
STARTCHAR 0063
ENCODING 99
SWIDTH 312 0
DWIDTH 5 0
BBX 4 9 1 0
BITMAP
70
90
80
80
80
80
80
90
70
ENDCHAR
STARTCHAR 0064
ENCODING 100
SWIDTH 375 0
DWIDTH 6 0
BBX 4 12 1 0
BITMAP
10
10
10
70
90
90
90
90
90
90
90
60
ENDCHAR
STARTCHAR 0065
ENCODING 101
SWIDTH 375 0
DWIDTH 6 0
BBX 4 9 1 0
BITMAP
60
90
90
90
F0
80
80
80
60
ENDCHAR
STARTCHAR 0066
ENCODING 102
SWIDTH 250 0
DWIDTH 4 0
BBX 4 12 1 0
BITMAP
70
80
80
80
E0
80
80
80
80
80
80
80
ENDCHAR
STARTCHAR 0067
ENCODING 103
SWIDTH 375 0
DWIDTH 6 0
BBX 4 12 1 -3
BITMAP
60
90
90
90
90
90
90
90
70
10
10
60
ENDCHAR
STARTCHAR 0068
ENCODING 104
SWIDTH 375 0
DWIDTH 6 0
BBX 4 12 1 0u
BITMAP
80
80
80
E0
90
90
90
90
90
90
90
90
ENDCHAR
STARTCHAR 0069
ENCODING 105
SWIDTH 187 0
DWIDTH 3 0
BBX 1 11 1 0
BITMAP
80
00
00
80
80
80
80
80
80
80
80
ENDCHAR
STARTCHAR 006A
ENCODING 106
SWIDTH 187 0
DWIDTH 3 0
BBX 3 14 0 -3
BITMAP
20
00
00
20
20
20
20
20
20
20
20
20
20
C0
ENDCHAR
STARTCHAR 006B
ENCODING 107
SWIDTH 375 0
DWIDTH 6 0
BBX 4 12 1 0
BITMAP
80
80
80
80
B0
A0
C0
E0
90
90
90
90
ENDCHAR
STARTCHAR 006C
ENCODING 108
SWIDTH 250 0
DWIDTH 4 0
BBX 2 13 1 0
BITMAP
80
80
80
80
80
80
80
80
80
80
80
80
40
ENDCHAR
STARTCHAR 006D
ENCODING 109
SWIDTH 562 0
DWIDTH 9 0
BBX 7 9 1 0
BITMAP
EC
92
92
92
92
92
92
92
92
ENDCHAR
STARTCHAR 006E
ENCODING 110
SWIDTH 375 0
DWIDTH 6 0
BBX 4 9 1 0
BITMAP
60
90
90
90
90
90
90
90
90
ENDCHAR
STARTCHAR 006F
ENCODING 111
SWIDTH 375 0
DWIDTH 6 0
BBX 4 9 1 0
BITMAP
60
90
90
90
90
90
90
90
60
ENDCHAR
STARTCHAR 0070
ENCODING 112
SWIDTH 375 0
DWIDTH 6 0
BBX 4 12 1 -3
BITMAP
60
90
90
90
90
90
90
90
E0
80
80
80
ENDCHAR
STARTCHAR 0071
ENCODING 113
SWIDTH 375 0
DWIDTH 6 0
BBX 4 12 1 -3
BITMAP
60
90
90
90
90
90
90
90
70
10
10
10
ENDCHAR
STARTCHAR 0072
ENCODING 114
SWIDTH 312 0
DWIDTH 5 0
BBX 4 9 1 0
BITMAP
70
90
80
80
80
80
80
80
80
ENDCHAR
STARTCHAR 0073
ENCODING 115
SWIDTH 312 0
DWIDTH 5 0
BBX 4 9 1 0
BITMAP
60
80
80
80
60
10
10
10
60
ENDCHAR
STARTCHAR 0074
ENCODING 116
SWIDTH 250 0
DWIDTH 4 0
BBX 3 11 1 0
BITMAP
80
80
E0
80
80
80
80
80
80
80
60
ENDCHAR
STARTCHAR 0075
ENCODING 117
SWIDTH 375 0
DWIDTH 6 0
BBX 4 9 1 0
BITMAP
90
90
90
90
90
90
90
90
60
ENDCHAR
STARTCHAR 0076
ENCODING 118
SWIDTH 375 0
DWIDTH 6 0
BBX 6 9 0 0
BITMAP
84
44
48
48
48
28
30
30
10
ENDCHAR
STARTCHAR 0077
ENCODING 119
SWIDTH 562 0
DWIDTH 9 0
BBX 9 9 0 0
BITMAP
8880
8880
4900
5500
5500
5500
3600
2200
2200
ENDCHAR
STARTCHAR 0078
ENCODING 120
SWIDTH 437 0
DWIDTH 7 0
BBX 6 9 0 0
BITMAP
C4
4C
28
30
10
30
28
48
44
ENDCHAR
STARTCHAR 0079
ENCODING 121
SWIDTH 375 0
DWIDTH 6 0
BBX 4 12 1 -3
BITMAP
90
90
90
90
90
90
90
90
70
10
10
60
ENDCHAR
STARTCHAR 007A
ENCODING 122
SWIDTH 375 0
DWIDTH 6 0
BBX 4 9 1 0
BITMAP
F0
10
20
20
40
40
40
80
F0
ENDCHAR
STARTCHAR 007B
ENCODING 123
SWIDTH 375 0
DWIDTH 6 0
BBX 6 16 0 -2
BITMAP
1C
20
20
20
20
20
60
80
40
20
20
20
20
20
20
1C
ENDCHAR
STARTCHAR 007C
ENCODING 124
SWIDTH 250 0
DWIDTH 4 0
BBX 1 13 2 0
BITMAP
80
80
80
80
80
80
80
80
80
80
80
80
80
ENDCHAR
STARTCHAR 007D
ENCODING 125
SWIDTH 375 0
DWIDTH 6 0
BBX 6 16 0 -2
BITMAP
E0
10
10
10
10
10
18
04
08
10
10
10
10
10
10
E0
ENDCHAR
STARTCHAR 007E
ENCODING 126
SWIDTH 437 0
DWIDTH 7 0
BBX 7 2 0 5
BITMAP
72
9C
ENDCHAR
STARTCHAR 0082
ENCODING 130
SWIDTH 312 0
DWIDTH 5 0
BBX 2 3 1 -1
BITMAP
40
40
80
ENDCHAR
STARTCHAR 0083
ENCODING 131
SWIDTH 500 0
DWIDTH 8 0
BBX 8 14 0 -2
BITMAP
07
08
08
08
3C
10
10
10
20
20
20
20
40
80
ENDCHAR
STARTCHAR 0084
ENCODING 132
SWIDTH 312 0
DWIDTH 5 0
BBX 3 4 1 -2
BITMAP
60
60
A0
40
ENDCHAR
STARTCHAR 0085
ENCODING 133
SWIDTH 375 0
DWIDTH 6 0
BBX 4 1 1 1
BITMAP
D0
ENDCHAR
STARTCHAR 0086
ENCODING 134
SWIDTH 375 0
DWIDTH 6 0
BBX 5 9 0 0
BITMAP
20
20
F8
20
20
20
20
20
20
ENDCHAR
STARTCHAR 0087
ENCODING 135
SWIDTH 375 0
DWIDTH 6 0
BBX 5 9 0 0
BITMAP
20
20
F8
20
20
20
F8
20
20
ENDCHAR
STARTCHAR 0088
ENCODING 136
SWIDTH 375 0
DWIDTH 6 0
BBX 4 2 1 10
BITMAP
40
F0
ENDCHAR
STARTCHAR 0089
ENCODING 137
SWIDTH 812 0
DWIDTH 13 0
BBX 12 10 0 -1
BITMAP
6200
9200
9400
6400
0800
1000
1770
2550
6550
4770
ENDCHAR
STARTCHAR 008B
ENCODING 139
SWIDTH 375 0
DWIDTH 6 0
BBX 4 6 1 3
BITMAP
20
40
80
40
20
10
ENDCHAR
STARTCHAR 008C
ENCODING 140
SWIDTH 687 0
DWIDTH 11 0
BBX 9 12 1 0
BITMAP
7780
8800
8800
8800
8800
8800
8F00
8800
8800
8800
8800
7780
ENDCHAR
STARTCHAR 0091
ENCODING 145
SWIDTH 312 0
DWIDTH 5 0
BBX 2 3 1 10
BITMAP
40
80
80
ENDCHAR
STARTCHAR 0092
ENCODING 146
SWIDTH 312 0
DWIDTH 5 0
BBX 1 2 2 10
BITMAP
80
80
ENDCHAR
STARTCHAR 0093
ENCODING 147
SWIDTH 312 0
DWIDTH 5 0
BBX 3 4 1 10
BITMAP
40
A0
C0
C0
ENDCHAR
STARTCHAR 0094
ENCODING 148
SWIDTH 312 0
DWIDTH 5 0
BBX 2 4 2 9
BITMAP
C0
C0
C0
80
ENDCHAR
STARTCHAR 0095
ENCODING 149
SWIDTH 312 0
DWIDTH 5 0
BBX 2 3 1 4
BITMAP
C0
C0
C0
ENDCHAR
STARTCHAR 0096
ENCODING 150
SWIDTH 375 0
DWIDTH 6 0
BBX 4 1 1 4
BITMAP
F0
ENDCHAR
STARTCHAR 0097
ENCODING 151
SWIDTH 437 0
DWIDTH 7 0
BBX 7 1 0 4
BITMAP
FE
ENDCHAR
STARTCHAR 0098
ENCODING 152
SWIDTH 375 0
DWIDTH 6 0
BBX 4 1 1 9
BITMAP
F0
ENDCHAR
STARTCHAR 0099
ENCODING 153
SWIDTH 437 0
DWIDTH 7 0
BBX 7 5 0 7
BITMAP
EA
4A
4E
4E
4A
ENDCHAR
STARTCHAR 009B
ENCODING 155
SWIDTH 312 0
DWIDTH 5 0
BBX 4 7 1 2
BITMAP
80
C0
60
30
60
C0
80
ENDCHAR
STARTCHAR 009C
ENCODING 156
SWIDTH 625 0
DWIDTH 10 0
BBX 8 9 1 0
BITMAP
6E
91
91
91
9F
90
90
90
6E
ENDCHAR
STARTCHAR 009F
ENCODING 159
SWIDTH 437 0
DWIDTH 7 0
BBX 7 14 0 0
BITMAP
28
00
82
44
44
44
28
28
38
10
10
10
10
10
ENDCHAR
STARTCHAR 00A0
ENCODING 160
SWIDTH 187 0
DWIDTH 3 0
BBX 0 0 0 0
BITMAP
ENDCHAR
STARTCHAR 00A1
ENCODING 161
SWIDTH 250 0
DWIDTH 4 0
BBX 1 12 2 0
BITMAP
80
00
80
80
80
80
80
80
80
80
80
80
ENDCHAR
STARTCHAR 00A2
ENCODING 162
SWIDTH 375 0
DWIDTH 6 0
BBX 3 10 1 0
BITMAP
40
40
E0
80
80
80
80
60
40
40
ENDCHAR
STARTCHAR 00A3
ENCODING 163
SWIDTH 437 0
DWIDTH 7 0
BBX 7 12 0 0
BITMAP
1C
32
20
20
20
20
FC
20
20
20
22
FC
ENDCHAR
STARTCHAR 00A4
ENCODING 164
SWIDTH 437 0
DWIDTH 7 0
BBX 6 12 0 0
BITMAP
38
44
40
40
40
F8
40
F8
40
40
44
38
ENDCHAR
STARTCHAR 00A5
ENCODING 165
SWIDTH 437 0
DWIDTH 7 0
BBX 5 12 1 0
BITMAP
88
88
88
50
50
D8
20
F8
20
20
20
20
ENDCHAR
STARTCHAR 00A7
ENCODING 167
SWIDTH 375 0
DWIDTH 6 0
BBX 4 10 1 0
BITMAP
70
80
80
60
90
90
60
10
10
E0
ENDCHAR
STARTCHAR 00A8
ENCODING 168
SWIDTH 312 0
DWIDTH 5 0
BBX 3 1 1 10
BITMAP
A0
ENDCHAR
STARTCHAR 00A9
ENCODING 169
SWIDTH 500 0
DWIDTH 8 0
BBX 8 9 0 0
BITMAP
3C
42
99
A1
A1
A1
99
42
3C
ENDCHAR
STARTCHAR 00AA
ENCODING 170
SWIDTH 375 0
DWIDTH 6 0
BBX 4 7 1 5
BITMAP
60
10
70
90
90
60
F0
ENDCHAR
STARTCHAR 00AB
ENCODING 171
SWIDTH 437 0
DWIDTH 7 0
BBX 6 7 0 2
BITMAP
10
34
68
D0
58
2C
14
ENDCHAR
STARTCHAR 00AC
ENCODING 172
SWIDTH 375 0
DWIDTH 6 0
BBX 5 4 0 2
BITMAP
F8
08
08
08
ENDCHAR
STARTCHAR 00AE
ENCODING 174
SWIDTH 437 0
DWIDTH 7 0
BBX 7 11 0 0
BITMAP
38
44
9A
A6
A6
BA
AA
A6
82
44
38
ENDCHAR
STARTCHAR 00AF
ENCODING 175
SWIDTH 375 0
DWIDTH 6 0
BBX 4 1 1 10
BITMAP
F0
ENDCHAR
STARTCHAR 00B0
ENCODING 176
SWIDTH 375 0
DWIDTH 6 0
BBX 4 4 1 8
BITMAP
60
90
90
60
ENDCHAR
STARTCHAR 00B1
ENCODING 177
SWIDTH 375 0
DWIDTH 6 0
BBX 5 7 1 2
BITMAP
20
20
F8
20
20
00
F8
ENDCHAR
STARTCHAR 00B4
ENCODING 180
SWIDTH 312 0
DWIDTH 5 0
BBX 3 2 1 10
BITMAP
60
80
ENDCHAR
STARTCHAR 00B5
ENCODING 181
SWIDTH 437 0
DWIDTH 7 0
BBX 7 12 0 -3
BITMAP
88
88
88
88
88
88
88
88
F6
80
80
80
ENDCHAR
STARTCHAR 00B6
ENCODING 182
SWIDTH 500 0
DWIDTH 8 0
BBX 7 12 0 0
BITMAP
7E
8A
8A
8A
7A
0A
0A
0A
0A
0A
0A
0A
ENDCHAR
STARTCHAR 00B7
ENCODING 183
SWIDTH 250 0
DWIDTH 4 0
BBX 1 1 2 4
BITMAP
80
ENDCHAR
STARTCHAR 00B8
ENCODING 184
SWIDTH 312 0
DWIDTH 5 0
BBX 2 4 2 -3
BITMAP
80
80
40
C0
ENDCHAR
STARTCHAR 00BA
ENCODING 186
SWIDTH 375 0
DWIDTH 6 0
BBX 4 7 1 5
BITMAP
60
90
90
90
90
60
F0
ENDCHAR
STARTCHAR 00BB
ENCODING 187
SWIDTH 437 0
DWIDTH 7 0
BBX 6 7 0 2
BITMAP
80
50
28
14
2C
58
90
ENDCHAR
STARTCHAR 00BF
ENCODING 191
SWIDTH 375 0
DWIDTH 6 0
BBX 6 12 0 0
BITMAP
20
00
20
20
20
60
C0
80
84
84
CC
78
ENDCHAR
STARTCHAR 00C0
ENCODING 192
SWIDTH 375 0
DWIDTH 6 0
BBX 5 15 1 1
BITMAP
60
30
00
70
88
88
88
88
88
88
F8
88
88
88
88
ENDCHAR
STARTCHAR 00C1
ENCODING 193
SWIDTH 375 0
DWIDTH 6 0
BBX 5 15 1 1
BITMAP
30
60
00
70
88
88
88
88
88
88
F8
88
88
88
88
ENDCHAR
STARTCHAR 00C2
ENCODING 194
SWIDTH 375 0
DWIDTH 6 0
BBX 5 15 1 1
BITMAP
20
50
00
70
88
88
88
88
88
88
F8
88
88
88
88
ENDCHAR
STARTCHAR 00C3
ENCODING 195
SWIDTH 375 0
DWIDTH 6 0
BBX 5 15 1 0
BITMAP
40
F8
00
70
88
88
88
88
88
88
F8
88
88
88
88
ENDCHAR
STARTCHAR 00C4
ENCODING 196
SWIDTH 375 0
DWIDTH 6 0
BBX 5 14 1 0
BITMAP
60
00
70
88
88
88
88
88
88
F8
88
88
88
88
ENDCHAR
STARTCHAR 00C5
ENCODING 197
SWIDTH 375 0
DWIDTH 6 0
BBX 5 16 1 0
BITMAP
70
50
70
00
70
88
88
88
88
88
88
F8
88
88
88
88
ENDCHAR
STARTCHAR 00C6
ENCODING 198
SWIDTH 625 0
DWIDTH 10 0
BBX 9 12 1 0
BITMAP
7780
8800
8800
8800
8800
8800
FF00
8800
8800
8800
8800
8780
ENDCHAR
STARTCHAR 00C7
ENCODING 199
SWIDTH 375 0
DWIDTH 6 0
BBX 5 15 0 -3
BITMAP
70
88
80
80
80
80
80
80
80
80
88
70
30
10
30
ENDCHAR
STARTCHAR 00C8
ENCODING 200
SWIDTH 375 0
DWIDTH 6 0
BBX 5 15 0 1
BITMAP
60
30
00
F8
80
80
80
80
F0
80
80
80
80
80
78
ENDCHAR
STARTCHAR 00C9
ENCODING 201
SWIDTH 375 0
DWIDTH 6 0
BBX 5 15 0 1
BITMAP
30
60
00
F8
80
80
80
80
F0
80
80
80
80
80
78
ENDCHAR
STARTCHAR 00CA
ENCODING 202
SWIDTH 375 0
DWIDTH 6 0
BBX 5 15 0 1
BITMAP
30
58
00
F8
80
80
80
80
F0
80
80
80
80
80
78
ENDCHAR
STARTCHAR 00CB
ENCODING 203
SWIDTH 375 0
DWIDTH 6 0
BBX 5 14 0 0
BITMAP
50
00
F8
80
80
80
80
F0
80
80
80
80
80
78
ENDCHAR
STARTCHAR 00CC
ENCODING 204
SWIDTH 312 0
DWIDTH 5 0
BBX 3 15 1 1
BITMAP
C0
20
00
40
40
40
40
40
40
40
40
40
40
40
40
ENDCHAR
STARTCHAR 00CD
ENCODING 205
SWIDTH 312 0
DWIDTH 5 0
BBX 3 15 1 1
BITMAP
60
80
00
40
40
40
40
40
40
40
40
40
40
40
40
ENDCHAR
STARTCHAR 00CE
ENCODING 206
SWIDTH 312 0
DWIDTH 5 0
BBX 3 15 1 1
BITMAP
E0
A0
00
40
40
40
40
40
40
40
40
40
40
40
40
ENDCHAR
STARTCHAR 00CF
ENCODING 207
SWIDTH 312 0
DWIDTH 5 0
BBX 3 14 1 0
BITMAP
A0
00
40
40
40
40
40
40
40
40
40
40
40
40
ENDCHAR
STARTCHAR 00D1
ENCODING 209
SWIDTH 375 0
DWIDTH 6 0
BBX 5 15 1 0
BITMAP
40
B8
00
88
C8
C8
C8
A8
A8
A8
A8
98
98
98
88
ENDCHAR
STARTCHAR 00D2
ENCODING 210
SWIDTH 375 0
DWIDTH 6 0
BBX 6 15 0 1
BITMAP
60
10
00
78
CC
84
84
84
84
84
84
84
84
CC
78
ENDCHAR
STARTCHAR 00D3
ENCODING 211
SWIDTH 375 0
DWIDTH 6 0
BBX 6 15 0 1
BITMAP
18
20
00
78
CC
84
84
84
84
84
84
84
84
CC
78
ENDCHAR
STARTCHAR 00D4
ENCODING 212
SWIDTH 375 0
DWIDTH 6 0
BBX 6 15 0 1
BITMAP
30
48
00
78
CC
84
84
84
84
84
84
84
84
CC
78
ENDCHAR
STARTCHAR 00D5
ENCODING 213
SWIDTH 375 0
DWIDTH 6 0
BBX 6 14 0 1
BITMAP
FC
00
78
CC
84
84
84
84
84
84
84
84
CC
78
ENDCHAR
STARTCHAR 00D6
ENCODING 214
SWIDTH 375 0
DWIDTH 6 0
BBX 6 14 0 0
BITMAP
30
00
78
CC
84
84
84
84
84
84
84
84
CC
78
ENDCHAR
STARTCHAR 00D8
ENCODING 216
SWIDTH 437 0
DWIDTH 7 0
BBX 7 12 0 0
BITMAP
3A
44
44
4C
4C
54
54
64
64
44
44
B8
ENDCHAR
STARTCHAR 00D9
ENCODING 217
SWIDTH 375 0
DWIDTH 6 0
BBX 5 15 1 1
BITMAP
20
10
00
88
88
88
88
88
88
88
88
88
88
88
70
ENDCHAR
STARTCHAR 00DA
ENCODING 218
SWIDTH 375 0
DWIDTH 6 0
BBX 5 15 1 1
BITMAP
20
40
00
88
88
88
88
88
88
88
88
88
88
88
70
ENDCHAR
STARTCHAR 00DB
ENCODING 219
SWIDTH 375 0
DWIDTH 6 0
BBX 5 16 1 0
BITMAP
20
70
50
00
88
88
88
88
88
88
88
88
88
88
88
70
ENDCHAR
STARTCHAR 00DC
ENCODING 220
SWIDTH 375 0
DWIDTH 6 0
BBX 5 14 1 0
BITMAP
60
00
88
88
88
88
88
88
88
88
88
88
88
70
ENDCHAR
STARTCHAR 00DF
ENCODING 223
SWIDTH 437 0
DWIDTH 7 0
BBX 7 12 0 0
BITMAP
38
44
44
C4
58
5C
42
42
42
42
42
5C
ENDCHAR
STARTCHAR 00E0
ENCODING 224
SWIDTH 375 0
DWIDTH 6 0
BBX 4 12 1 1
BITMAP
C0
60
00
60
10
10
70
90
90
90
90
60
ENDCHAR
STARTCHAR 00E1
ENCODING 225
SWIDTH 375 0
DWIDTH 6 0
BBX 4 12 1 1
BITMAP
30
60
00
60
10
10
70
90
90
90
90
60
ENDCHAR
STARTCHAR 00E2
ENCODING 226
SWIDTH 375 0
DWIDTH 6 0
BBX 4 12 1 0
BITMAP
60
F0
00
60
10
10
70
90
90
90
90
60
ENDCHAR
STARTCHAR 00E3
ENCODING 227
SWIDTH 375 0
DWIDTH 6 0
BBX 4 11 1 0
BITMAP
D0
20
60
10
10
70
90
90
90
90
60
ENDCHAR
STARTCHAR 00E4
ENCODING 228
SWIDTH 375 0
DWIDTH 6 0
BBX 4 11 1 0
BITMAP
60
00
60
10
10
70
90
90
90
90
60
ENDCHAR
STARTCHAR 00E5
ENCODING 229
SWIDTH 375 0
DWIDTH 6 0
BBX 4 12 1 0
BITMAP
60
60
00
60
10
10
70
90
90
90
90
60
ENDCHAR
STARTCHAR 00E6
ENCODING 230
SWIDTH 625 0
DWIDTH 10 0
BBX 9 9 0 0
BITMAP
7700
0880
0880
7880
8F80
8800
8800
8800
7700
ENDCHAR
STARTCHAR 00E7
ENCODING 231
SWIDTH 375 0
DWIDTH 6 0
BBX 3 12 1 -3
BITMAP
60
80
80
80
80
80
80
80
60
60
20
60
ENDCHAR
STARTCHAR 00E8
ENCODING 232
SWIDTH 375 0
DWIDTH 6 0
BBX 4 12 1 1
BITMAP
C0
40
00
60
90
90
90
F0
80
80
80
60
ENDCHAR
STARTCHAR 00E9
ENCODING 233
SWIDTH 375 0
DWIDTH 6 0
BBX 4 12 1 1
BITMAP
30
20
00
60
90
90
90
F0
80
80
80
60
ENDCHAR
STARTCHAR 00EA
ENCODING 234
SWIDTH 375 0
DWIDTH 6 0
BBX 4 12 1 0
BITMAP
60
F0
00
60
90
90
90
F0
80
80
80
60
ENDCHAR
STARTCHAR 00EB
ENCODING 235
SWIDTH 375 0
DWIDTH 6 0
BBX 4 11 1 0
BITMAP
60
00
60
90
90
90
F0
80
80
80
60
ENDCHAR
STARTCHAR 00EC
ENCODING 236
SWIDTH 250 0
DWIDTH 4 0
BBX 2 12 0 1
BITMAP
80
40
00
40
40
40
40
40
40
40
40
40
ENDCHAR
STARTCHAR 00ED
ENCODING 237
SWIDTH 250 0
DWIDTH 4 0
BBX 2 12 1 1
BITMAP
40
80
00
80
80
80
80
80
80
80
80
80
ENDCHAR
STARTCHAR 00EE
ENCODING 238
SWIDTH 250 0
DWIDTH 4 0
BBX 3 12 1 1
BITMAP
40
A0
00
40
40
40
40
40
40
40
40
40
ENDCHAR
STARTCHAR 00EF
ENCODING 239
SWIDTH 250 0
DWIDTH 4 0
BBX 3 11 0 0
BITMAP
A0
00
40
40
40
40
40
40
40
40
40
ENDCHAR
STARTCHAR 00F1
ENCODING 241
SWIDTH 375 0
DWIDTH 6 0
BBX 4 11 1 0
BITMAP
D0
20
60
90
90
90
90
90
90
90
90
ENDCHAR
STARTCHAR 00F2
ENCODING 242
SWIDTH 375 0
DWIDTH 6 0
BBX 4 12 1 1
BITMAP
C0
40
00
60
90
90
90
90
90
90
90
60
ENDCHAR
STARTCHAR 00F3
ENCODING 243
SWIDTH 375 0
DWIDTH 6 0
BBX 4 12 1 1
BITMAP
30
20
00
60
90
90
90
90
90
90
90
60
ENDCHAR
STARTCHAR 00F4
ENCODING 244
SWIDTH 375 0
DWIDTH 6 0
BBX 4 12 1 0
BITMAP
60
F0
00
60
90
90
90
90
90
90
90
60
ENDCHAR
STARTCHAR 00F5
ENCODING 245
SWIDTH 375 0
DWIDTH 6 0
BBX 4 11 1 0
BITMAP
D0
20
60
90
90
90
90
90
90
90
60
ENDCHAR
STARTCHAR 00F6
ENCODING 246
SWIDTH 375 0
DWIDTH 6 0
BBX 4 11 1 0
BITMAP
60
00
60
90
90
90
90
90
90
90
60
ENDCHAR
STARTCHAR 00F7
ENCODING 247
SWIDTH 625 0
DWIDTH 10 0
BBX 8 12 1 0
BITMAP
6E
91
90
FF
91
91
91
91
91
91
91
91
ENDCHAR
STARTCHAR 00F8
ENCODING 248
SWIDTH 437 0
DWIDTH 7 0
BBX 5 9 1 0
BITMAP
78
88
98
98
A8
E8
C8
88
F0
ENDCHAR
STARTCHAR 00F9
ENCODING 249
SWIDTH 375 0
DWIDTH 6 0
BBX 4 12 1 1
BITMAP
C0
40
00
90
90
90
90
90
90
90
90
60
ENDCHAR
STARTCHAR 00FA
ENCODING 250
SWIDTH 375 0
DWIDTH 6 0
BBX 4 12 1 1
BITMAP
30
20
00
90
90
90
90
90
90
90
90
60
ENDCHAR
STARTCHAR 00FB
ENCODING 251
SWIDTH 375 0
DWIDTH 6 0
BBX 4 12 1 1
BITMAP
60
F0
00
90
90
90
90
90
90
90
90
60
ENDCHAR
STARTCHAR 00FC
ENCODING 252
SWIDTH 375 0
DWIDTH 6 0
BBX 4 11 1 0
BITMAP
60
00
90
90
90
90
90
90
90
90
60
ENDCHAR
STARTCHAR 00FF
ENCODING 255
SWIDTH 375 0
DWIDTH 6 0
BBX 4 14 1 -3
BITMAP
60
00
90
90
90
90
90
90
90
90
70
10
10
60
ENDCHAR
ENDFONT
